<svg width="30" height="30" xmlns="http://www.w3.org/2000/svg" baseProfile="full" version="1.1">
 <g id="Layer_1">
  <title>Layer 1</title>
  <path fill="#c4864c" stroke="#000" opacity="undefined" d="m15,29.53307c-8.28714,0 -14.99973,-6.60071 -14.99973,-14.74973c0,-8.14902 6.71258,-14.74973 14.99973,-14.74973c8.28714,0 14.99973,6.60071 14.99973,14.74973c0,8.14902 -6.71258,14.74973 -14.99973,14.74973z" id="svg_1" stroke-width="0"/>
  <path stroke="#000" id="svg_3" d="m25.86381,13.20593l-2.78663,-2.61764l0,-6.25173l-2.38893,0l0,4.00767l-5.57418,-5.23614l-10.74975,10.09783l2.55912,-0.05728l0,10.20897l16.2675,0l0,-10.15169l2.67288,0zm-10.74975,8.69156l-5.30844,0l0,-5.98415l5.30844,0l0,5.98415zm5.15737,-2.56464l-3.4883,0l0,-3.45542l3.4883,0l0,3.45542z" stroke-width="2" fill="#c4864c"/>
 </g>

</svg>