<svg width="30" height="30" xmlns="http://www.w3.org/2000/svg" version="1.1" baseProfile="full">
 <g id="Layer_1">
  <title>Layer 1</title>
  <path stroke-width="0" id="svg_1" d="m15,29.53307c-8.28714,0 -14.99973,-6.60071 -14.99973,-14.74973c0,-8.14902 6.71258,-14.74973 14.99973,-14.74973c8.28714,0 14.99973,6.60071 14.99973,14.74973c0,8.14902 -6.71258,14.74973 -14.99973,14.74973z" opacity="undefined" stroke="#000" fill="#c4864c"/>
  <path transform="rotate(180 15.2397 14.7155)" stroke="#000" stroke-width="2" id="svg_3" d="m11.82139,26.16418c-0.80566,-0.63671 -0.69996,-1.02227 1.25884,-4.59142c0.9891,-1.80224 1.79835,-3.32917 1.79835,-3.39318c0,-0.06401 -2.73123,-0.11638 -6.06942,-0.11638l-5.95782,0l-0.11161,-3.37541l0,-3.37541l6.11753,0c4.71696,0 6.06487,-0.10168 5.88755,-0.44413c-0.12649,-0.24427 -0.98932,-1.86523 -1.9174,-3.60212c-1.74945,-3.27407 -1.7489,-4.1521 0.0027,-4.42426c0.87171,-0.13544 14.44314,10.27089 14.90962,11.43243c-4.52053,4.14734 -9.92409,8.48855 -14.90165,12.31626c-0.26246,0 -0.71996,-0.19187 -1.01669,-0.42637l0,0z" fill="#c4864c"/>
 </g>
</svg>